<svg xmlns="http://www.w3.org/2000/svg" viewBox="0 0 8.74 11.26" ><style>.sanity-logo-light-color{opacity:0.7}</style><g fill="currentColor"><path  d="M.93 1.44c0 1.52.95 2.42 2.87 2.9l2.02.46c1.81.41 2.91 1.42 2.91 3.07.01.72-.22 1.42-.67 1.99 0-1.65-.87-2.54-2.96-3.07l-1.99-.45C1.52 5.99.29 5.15.29 3.36c-.01-.69.22-1.37.64-1.92"/><path class="sanity-logo-light-color" d="M6.82 7.47c.86.54 1.24 1.3 1.24 2.39-.71.9-1.97 1.4-3.45 1.4-2.49 0-4.22-1.2-4.61-3.29h2.39c.31.96 1.12 1.4 2.21 1.4 1.32.01 2.2-.69 2.22-1.9M2.17 3.69c-.39-.23-.71-.56-.93-.96-.22-.4-.32-.84-.3-1.29C1.62.54 2.82 0 4.29 0c2.53 0 4 1.31 4.36 3.16h-2.3c-.25-.73-.89-1.3-2.04-1.3-1.24.01-2.08.71-2.14 1.83"/></g></svg>